<?xml version="1.0" encoding="UTF-8" standalone="no"?>
<!-- Generator: Adobe Illustrator 17.1.0, SVG Export Plug-In . SVG Version: 6.00 Build 0)  -->

<svg
   xmlns:dc="http://purl.org/dc/elements/1.1/"
   xmlns:cc="http://creativecommons.org/ns#"
   xmlns:rdf="http://www.w3.org/1999/02/22-rdf-syntax-ns#"
   xmlns:svg="http://www.w3.org/2000/svg"
   xmlns="http://www.w3.org/2000/svg"
   xmlns:sodipodi="http://sodipodi.sourceforge.net/DTD/sodipodi-0.dtd"
   xmlns:inkscape="http://www.inkscape.org/namespaces/inkscape"
   version="1.1"
   id="Capa_1"
   x="0px"
   y="0px"
   viewBox="0 0 210.473 210.473"
   style="enable-background:new 0 0 210.473 210.473;"
   xml:space="preserve"
   sodipodi:docname="bird_safe.svg"
   inkscape:version="0.92.4 (5da689c313, 2019-01-14)"
   inkscape:export-filename="/home/amnesia/Persistent/git/oniontree-sentinel/icons/bird_safe_32px.png"
   inkscape:export-xdpi="14.6"
   inkscape:export-ydpi="14.6"><metadata
   id="metadata4101"><rdf:RDF><cc:Work
       rdf:about=""><dc:format>image/svg+xml</dc:format><dc:type
         rdf:resource="http://purl.org/dc/dcmitype/StillImage" /><dc:title></dc:title></cc:Work></rdf:RDF></metadata><defs
   id="defs4099" /><sodipodi:namedview
   pagecolor="#ffffff"
   bordercolor="#666666"
   borderopacity="1"
   objecttolerance="10"
   gridtolerance="10"
   guidetolerance="10"
   inkscape:pageopacity="0"
   inkscape:pageshadow="2"
   inkscape:window-width="1366"
   inkscape:window-height="671"
   id="namedview4097"
   showgrid="false"
   inkscape:zoom="1.1212839"
   inkscape:cx="-76.697791"
   inkscape:cy="105.2365"
   inkscape:window-x="0"
   inkscape:window-y="27"
   inkscape:window-maximized="1"
   inkscape:current-layer="Capa_1" />
<path
   d="M209.959,54.038c-0.691-2.137-2.782-7.506-7.229-11.136c-2.253-1.841-5.08-3.305-7.482-4.353  c-1.977-2.639-10.722-13.115-24.982-13.115c-2.242,0-4.525,0.266-6.788,0.788c-17.47,4.04-22.74,14.847-24.472,18.397  c-0.088,0.18-0.161,0.336-0.226,0.456c-1.091,2.025-2.496,6.113-3.449,9.073c-4.165,3.175-14.268,11.141-25.944,22.263  c-13.584,12.936-42.904,45.178-48.966,51.866L9.308,151.13c-3.834,1.714-6.77,4.819-8.267,8.743  c-1.498,3.924-1.376,8.195,0.342,12.029c2.53,5.642,8.161,9.287,14.346,9.286c2.453,0,4.911-0.59,7.107-1.706l46.677-23.707  c5.775,0.058,23.719,0.276,30.659,0.844c2.877,0.234,5.375,0.431,7.429,0.589c0.187,0.771,0.426,1.557,0.73,2.34l0.084,0.215  c1.788,4.532,6.108,7.461,11.008,7.461c0.221,0,0.441-0.029,0.662-0.042l6.609,4.213c-1.937,1.356-3.207,3.6-3.207,6.145  c0,4.143,3.357,7.5,7.5,7.5h8.302c2.422,0,4.624-0.744,6.388-2.129c2.867,1.186,6.236,2.129,9.732,2.129h16.692  c4.143,0,7.5-3.357,7.5-7.5s-3.357-7.5-7.5-7.5h-16.692c-2.989,0-7.218-2.494-8.771-3.682c-0.187-0.146-0.38-0.281-0.579-0.408  l-14.436-9.201c0.096-0.348,0.181-0.604,0.241-0.763c9.188-1.058,34.138-5.73,48.581-25.836  c15.279-21.271,13.632-39.78,13.012-46.748c-0.053-0.593-0.118-1.33-0.121-1.559c0-1.996,0.532-6.883,1.045-10.986  c1.468-0.396,3.292-1.078,5.279-2.265c1.999-1.195,3.722-2.928,5.05-4.528c3.304-0.784,5.764-3.747,5.764-7.291  C210.473,55.807,210.291,54.885,209.959,54.038z M171.193,60.034c-6.094,0-11.051-4.957-11.051-11.051s4.957-11.051,11.051-11.051  s11.051,4.957,11.051,11.051S177.286,60.034,171.193,60.034z"
   id="path4064"
   style="fill:#00ff66;fill-opacity:1" />
<g
   id="g4066">
</g>
<g
   id="g4068">
</g>
<g
   id="g4070">
</g>
<g
   id="g4072">
</g>
<g
   id="g4074">
</g>
<g
   id="g4076">
</g>
<g
   id="g4078">
</g>
<g
   id="g4080">
</g>
<g
   id="g4082">
</g>
<g
   id="g4084">
</g>
<g
   id="g4086">
</g>
<g
   id="g4088">
</g>
<g
   id="g4090">
</g>
<g
   id="g4092">
</g>
<g
   id="g4094">
</g>
</svg>